<svg width="20" height="20" viewBox="0 0 20 20" fill="none" xmlns="http://www.w3.org/2000/svg">
<path d="M5.32257 4.13624C5.64515 3.74916 5.83869 3.26527 5.83869 2.74915C5.83869 1.58786 4.87095 0.620117 3.70967 0.620117C2.54838 0.620117 1.58064 1.58786 1.58064 2.74915C1.58064 3.26527 1.77418 3.74916 2.09676 4.13624C0.709663 4.71686 0 5.71688 0 7.03947C0 7.62013 0.12904 8.00722 0.419352 8.2653C0.903204 8.68465 1.93549 8.49111 2.2903 8.42661C2.70965 8.36211 3.19354 8.29757 3.70967 8.29757C4.22579 8.29757 4.70968 8.36207 5.12903 8.42661C5.90323 8.55565 6.5484 8.65242 7.00002 8.26534C7.29033 8.03953 7.41937 7.62017 7.41937 7.03951C7.41937 5.71688 6.70967 4.71686 5.32257 4.13624ZM3.70967 1.29751C4.5161 1.29751 5.19353 1.97494 5.19353 2.78138C5.19353 3.58781 4.51614 4.26528 3.70967 4.26528C2.90319 4.26528 2.2258 3.58785 2.2258 2.78142C2.2258 1.97498 2.90323 1.29751 3.70967 1.29751ZM6.58067 7.78141C6.35486 7.97495 5.83873 7.87818 5.22584 7.78141C4.77422 7.71691 4.2581 7.62013 3.7097 7.62013C3.16131 7.62013 2.64519 7.68464 2.19357 7.78141C1.58068 7.91045 1.06455 7.97495 0.838743 7.78141C0.709703 7.68464 0.645202 7.42655 0.645202 7.07174C0.645202 5.87819 1.32264 5.10398 2.67746 4.6524C2.96777 4.81371 3.32262 4.91048 3.7097 4.91048C4.09679 4.91048 4.45164 4.81371 4.74195 4.6524C6.09677 5.10402 6.77421 5.91046 6.77421 7.07174C6.77421 7.42655 6.70967 7.68464 6.58067 7.78141ZM17.9032 4.16851C18.2258 3.78143 18.4194 3.29754 18.4194 2.78142C18.4194 1.62013 17.4516 0.652387 16.2903 0.652387C15.1291 0.652387 14.1613 1.62013 14.1613 2.78142C14.1613 3.29754 14.3548 3.78143 14.6774 4.16851C13.2903 4.74917 12.5807 5.74915 12.5807 7.07174C12.5807 7.65241 12.7097 8.03949 13 8.29757C13.4839 8.71692 14.5162 8.52338 14.871 8.45884C15.2903 8.39434 15.8064 8.3298 16.2903 8.3298C16.8065 8.3298 17.2903 8.3943 17.7097 8.45884C18.4839 8.58788 19.1291 8.68465 19.5806 8.29757C19.871 8.07176 20 7.65241 20 7.07174C20 5.74915 19.2903 4.74913 17.9032 4.16851ZM16.2903 1.29751C17.0968 1.29751 17.7742 1.97494 17.7742 2.78138C17.7742 3.58781 17.0968 4.26524 16.2903 4.26524C15.4839 4.26524 14.8065 3.58781 14.8065 2.78138C14.8065 1.97494 15.4839 1.29751 16.2903 1.29751ZM19.1613 7.78141C18.9355 7.97495 18.4194 7.87818 17.8065 7.78141C17.3548 7.71691 16.8387 7.62013 16.2903 7.62013C15.7419 7.62013 15.2258 7.68464 14.7742 7.78141C14.1613 7.87818 13.6452 7.94268 13.4194 7.78141C13.2903 7.68464 13.2258 7.42655 13.2258 7.07174C13.2258 5.87819 13.9033 5.10398 15.2581 4.6524C15.5484 4.81371 15.9033 4.91048 16.2903 4.91048C16.6774 4.91048 17.0323 4.81371 17.3226 4.6524C18.6774 5.10402 19.3548 5.91046 19.3548 7.07174C19.3548 7.42655 19.2903 7.68464 19.1613 7.78141ZM11.6129 14.975C11.9355 14.5879 12.129 14.104 12.129 13.5879C12.129 12.4266 11.1613 11.4588 9.99998 11.4588C8.8387 11.4588 7.87095 12.4266 7.87095 13.5879C7.87095 14.104 8.06449 14.5879 8.38707 14.975C6.99998 15.5556 6.29032 16.5556 6.29032 17.8782C6.29032 18.4589 6.41936 18.8459 6.70967 19.104C7.19352 19.5234 8.2258 19.3298 8.58065 19.2653C9.00001 19.2008 9.51613 19.1363 10 19.1363C10.5161 19.1363 11 19.2008 11.4194 19.2653C12.1936 19.3944 12.8388 19.4911 13.2903 19.104C13.5806 18.8782 13.7097 18.4589 13.7097 17.8782C13.7097 16.5556 13 15.5556 11.6129 14.975ZM10 12.104C10.8065 12.104 11.4839 12.7814 11.4839 13.5878C11.4839 14.3943 10.8065 15.0717 10 15.0717C9.19359 15.0717 8.51615 14.3943 8.51615 13.5878C8.51611 12.7814 9.19355 12.104 10 12.104ZM12.871 18.6201C12.6452 18.8137 12.129 18.7169 11.5162 18.6201C11.0645 18.5556 10.5484 18.4588 10 18.4588C9.45163 18.4588 8.93551 18.5233 8.48388 18.6201C7.87099 18.7169 7.35487 18.7814 7.12906 18.6201C7.00002 18.5234 6.93552 18.2653 6.93552 17.9105C6.93552 16.7169 7.61295 15.9427 8.96778 15.4911C9.25809 15.6524 9.61294 15.7492 10 15.7492C10.3871 15.7492 10.742 15.6524 11.0323 15.4911C12.3871 15.9427 13.0645 16.7492 13.0645 17.9105C13.0645 18.2653 13 18.4911 12.871 18.6201ZM17.0968 9.03946C17 11.4911 15.5806 13.7491 13.3871 14.9427L13.7097 15.5234C16.0968 14.233 17.6129 11.7492 17.7419 9.07173L17.0968 9.03946ZM10.0323 0.974929C8.74193 0.974929 7.4516 1.29751 6.32259 1.9104L6.64517 2.49106C7.64518 1.9104 8.80647 1.62009 10 1.62009C11.1936 1.62009 12.3549 1.9104 13.3871 2.49106L13.7097 1.9104C12.5806 1.29751 11.3226 0.974929 10.0323 0.974929ZM2.90323 9.03946L2.25807 9.07173C2.38711 11.9104 4.06452 14.4588 6.6129 15.7169L6.90321 15.104C4.54837 13.9749 3.03227 11.6524 2.90323 9.03946ZM9.67744 7.74914H10.3226V8.3943H9.67744V7.74914ZM10.9677 7.74914H11.6129V8.3943H10.9677V7.74914ZM8.38711 7.74914H9.03228V8.3943H8.38711V7.74914Z" fill="black" stroke="black" stroke-width="0.2"/>
</svg>
