<svg width="20" height="20" viewBox="0 0 20 20" fill="none" xmlns="http://www.w3.org/2000/svg">
<path d="M17.9303 2.16948C17.8894 2.16782 17.8485 2.16755 17.8076 2.1687H16.2654V0.843386C16.2655 0.31326 15.7594 0 15.2293 0H13.8076C13.2775 0 12.892 0.31326 12.892 0.843386V2.16865H7.10883V0.843386C7.10883 0.31326 6.7233 0 6.19317 0H4.77146C4.24138 0 3.73533 0.31326 3.73533 0.843386V2.16865H2.1932C1.20877 2.14121 0.388495 2.91703 0.361052 3.90141C0.359899 3.94227 0.360176 3.98323 0.361836 4.02409V17.9518C0.361836 19.012 1.1329 20 2.19315 20H17.8076C18.8679 20 19.639 19.012 19.639 17.9518V4.02409C19.6793 3.04013 18.9143 2.2098 17.9303 2.16948ZM13.8076 0.963857H15.3016V3.61444H13.8076V0.963857ZM4.77151 0.963857H6.14502V3.61444H4.77151V0.963857ZM18.6751 17.9518C18.6751 18.4819 18.3378 19.0361 17.8076 19.0361H2.1932C1.66307 19.0361 1.32574 18.4819 1.32574 17.9518V7.71085H18.6751V17.9518ZM18.6751 4.02409V6.747H1.32569V4.02409C1.28487 3.57348 1.61709 3.17508 2.0677 3.13426C2.10941 3.13049 2.15135 3.12992 2.19315 3.13256H3.73533V3.66268C3.73533 4.19281 4.24134 4.57834 4.77146 4.57834H6.19317C6.68539 4.59186 7.09532 4.20374 7.10883 3.71153C7.10929 3.69524 7.10929 3.67896 7.10883 3.66268V3.13251H12.892V3.66264C12.8785 4.15485 13.2666 4.56478 13.7588 4.5783C13.7751 4.57876 13.7913 4.57876 13.8076 4.5783H15.2293C15.7595 4.5783 16.2655 4.19276 16.2655 3.66264V3.13251H17.8076C18.2592 3.10405 18.6484 3.44706 18.6768 3.89864C18.6795 3.94044 18.6789 3.98238 18.6751 4.02409Z" fill="black"/>
</svg>
