<svg width="18" height="18" viewBox="0 0 18 18" fill="none" xmlns="http://www.w3.org/2000/svg">
<path fill-rule="evenodd" clip-rule="evenodd" d="M6.63118 16.3095V13.7539C6.63116 13.1039 7.16109 12.5757 7.81767 12.5713H10.2227C10.8824 12.5713 11.4173 13.1008 11.4173 13.7539V13.7539V16.3174C11.4171 16.8693 11.862 17.3204 12.4194 17.3333H14.0227C15.6211 17.3333 16.9168 16.0506 16.9168 14.4682V14.4682V7.19819C16.9083 6.57568 16.6131 5.99111 16.1151 5.61085L10.6316 1.23774C9.67094 0.476295 8.30533 0.476295 7.34468 1.23774L1.88518 5.61879C1.38538 5.99751 1.08965 6.58305 1.0835 7.20612V14.4682C1.0835 16.0506 2.37923 17.3333 3.97759 17.3333H5.58096C6.15212 17.3333 6.61514 16.8749 6.61514 16.3095V16.3095" fill="white"/>
<path d="M6.63118 16.3095V13.7539C6.63116 13.1039 7.16109 12.5757 7.81767 12.5713H10.2227C10.8824 12.5713 11.4173 13.1008 11.4173 13.7539V13.7539V16.3174C11.4171 16.8693 11.862 17.3204 12.4194 17.3333H14.0227C15.6211 17.3333 16.9168 16.0506 16.9168 14.4682V14.4682V7.19819C16.9083 6.57568 16.6131 5.99111 16.1151 5.61085L10.6316 1.23774C9.67094 0.476295 8.30533 0.476295 7.34468 1.23774L1.88518 5.61879C1.38538 5.99751 1.08965 6.58305 1.0835 7.20612V14.4682C1.0835 16.0506 2.37923 17.3333 3.97759 17.3333H5.58096C6.15212 17.3333 6.61514 16.8749 6.61514 16.3095V16.3095" stroke="black" stroke-linecap="round" stroke-linejoin="round"/>
</svg>
