<svg width="20" height="20" viewBox="0 0 20 20" fill="none" xmlns="http://www.w3.org/2000/svg">
<path d="M10.4297 3.41797C10.214 3.41797 10.0391 3.59285 10.0391 3.80859C10.0391 4.02434 10.214 4.19922 10.4297 4.19922H11.7139C11.7166 5.12918 12.0184 5.99781 12.5325 6.70684C11.9998 7.22598 11.3021 7.58035 10.5178 7.67883C10.3038 7.7057 10.152 7.90102 10.1789 8.11504C10.2037 8.31258 10.3719 8.45703 10.5659 8.45703C10.5821 8.45703 10.5986 8.45602 10.6151 8.45395C11.5586 8.33551 12.4 7.91457 13.0469 7.29633C13.6938 7.91457 14.5352 8.33551 15.4788 8.45395C15.4953 8.45602 15.5116 8.45703 15.5279 8.45703C15.7219 8.45703 15.8902 8.31254 15.915 8.11504C15.9418 7.90098 15.7901 7.70566 15.576 7.67883C14.7917 7.58035 14.0939 7.22602 13.5614 6.70684C14.0754 5.99777 14.3772 5.12918 14.3799 4.19922H15.6641C15.8798 4.19922 16.0547 4.02434 16.0547 3.80859C16.0547 3.59285 15.8798 3.41797 15.6641 3.41797H13.4375V2.40234C13.4375 2.1866 13.2626 2.01172 13.0469 2.01172C12.8312 2.01172 12.6562 2.1866 12.6562 2.40234V3.41797H10.4297ZM13.0469 6.07434C12.6992 5.52918 12.4977 4.8848 12.4953 4.19922H13.5984C13.5961 4.8848 13.3946 5.52918 13.0469 6.07434Z" fill="black"/>
<path d="M17.9282 0H14.8047C14.589 0 14.4141 0.174883 14.4141 0.390625C14.4141 0.606367 14.589 0.78125 14.8047 0.78125H17.9282C18.6398 0.78125 19.2188 1.3602 19.2188 2.07184V8.39695C19.2188 9.10855 18.6398 9.6875 17.9282 9.6875C17.7125 9.6875 17.5375 9.86238 17.5375 10.0781V11.731L15.2536 9.78105C15.1829 9.72066 15.093 9.6875 15 9.6875H8.16555C7.45391 9.6875 6.875 9.10855 6.875 8.39691V2.07184C6.875 1.3602 7.45391 0.78125 8.16555 0.78125H11.2891C11.5048 0.78125 11.6797 0.606367 11.6797 0.390625C11.6797 0.174883 11.5048 0 11.2891 0H8.16555C7.02316 0 6.09375 0.929414 6.09375 2.07184V7.03125H2.0718C0.929414 7.03125 0 7.96066 0 9.10309V15.4282C0 16.4371 0.724922 17.2798 1.68117 17.4631V19.6094C1.68117 19.7618 1.76984 19.9003 1.90824 19.9641C1.96055 19.9882 2.01633 20 2.07176 20C2.16305 20 2.25332 19.968 2.32547 19.9064L5.14406 17.5H11.8344C12.9768 17.5 13.9062 16.5706 13.9062 15.4282V10.4688H14.8559L17.6745 12.8752C17.7467 12.9368 17.837 12.9688 17.9282 12.9688C17.9837 12.9688 18.0395 12.957 18.0918 12.9329C18.2302 12.869 18.3188 12.7305 18.3188 12.5781L18.3189 10.4318C19.2751 10.2486 20 9.40582 20 8.39695V2.07184C20 0.929414 19.0706 0 17.9282 0V0ZM6.95949 10.9182L7.7334 12.9688H6.17852L6.95949 10.9182ZM13.125 15.4282C13.125 16.1398 12.5461 16.7188 11.8345 16.7188H5C4.90699 16.7188 4.81707 16.7519 4.74637 16.8123L2.46242 18.7623V17.1094C2.46242 16.8936 2.2875 16.7188 2.0718 16.7188C1.36016 16.7188 0.78125 16.1398 0.78125 15.4282V9.10309C0.78125 8.39145 1.36016 7.8125 2.0718 7.8125H6.09375V8.39691C6.09375 8.91832 6.28777 9.39496 6.60684 9.75953C6.56453 9.80352 6.52992 9.85578 6.50578 9.91477C6.50457 9.91773 6.50336 9.9207 6.50227 9.92371L4.83023 14.3139C4.75344 14.5155 4.85461 14.7411 5.05621 14.8179C5.25781 14.8947 5.48348 14.7935 5.56027 14.5919L5.8809 13.7501H8.02816L8.34543 14.5908C8.40445 14.7472 8.55305 14.8436 8.71094 14.8436C8.75676 14.8436 8.80336 14.8355 8.84879 14.8183C9.05063 14.7421 9.15246 14.5168 9.07629 14.3149L7.59434 10.388C7.7759 10.4402 7.96734 10.4688 8.16543 10.4688H13.125V15.4282Z" fill="black"/>
<path d="M13.0469 0.78125C13.1496 0.78125 13.2504 0.739453 13.323 0.666797C13.3957 0.594141 13.4375 0.493359 13.4375 0.390625C13.4375 0.287891 13.3957 0.187109 13.323 0.114453C13.2504 0.0417969 13.1496 0 13.0469 0C12.9441 0 12.8434 0.0417969 12.7707 0.114453C12.698 0.187109 12.6562 0.287891 12.6562 0.390625C12.6562 0.493359 12.698 0.594141 12.7707 0.666797C12.8434 0.739453 12.9441 0.78125 13.0469 0.78125Z" fill="black"/>
</svg>
