<svg width="20" height="20" viewBox="0 0 20 20" fill="none" xmlns="http://www.w3.org/2000/svg">
<g clip-path="url(#clip0_1_875)">
<path d="M16.6437 6.92943e-06H6.64375C5.76076 0.00165894 4.9144 0.353159 4.29003 0.977532C3.66565 1.6019 3.31415 2.44826 3.3125 3.33126V16.6688C3.32855 16.8342 3.4056 16.9877 3.52866 17.0994C3.65171 17.2111 3.81194 17.2729 3.97812 17.2729C4.14431 17.2729 4.30454 17.2111 4.42759 17.0994C4.55065 16.9877 4.6277 16.8342 4.64375 16.6688V3.33126C4.64375 2.80082 4.85446 2.29212 5.22954 1.91704C5.60461 1.54197 6.11332 1.33126 6.64375 1.33126H16.6437C17.1742 1.33126 17.6829 1.54197 18.058 1.91704C18.433 2.29212 18.6437 2.80082 18.6437 3.33126V16.6688C18.6437 17.1992 18.433 17.7079 18.058 18.083C17.6829 18.458 17.1742 18.6688 16.6437 18.6688H3.98125C3.45082 18.6688 2.94211 18.458 2.56704 18.083C2.19196 17.7079 1.98125 17.1992 1.98125 16.6688V3.33126C1.98125 3.15141 1.9098 2.97892 1.78263 2.85175C1.65546 2.72458 1.48297 2.65313 1.30313 2.65313C1.12328 2.65313 0.950791 2.72458 0.823618 2.85175C0.696445 2.97892 0.625 3.15141 0.625 3.33126V16.6688C0.625816 17.1081 0.713367 17.543 0.882631 17.9484C1.0519 18.3538 1.29954 18.7218 1.61136 19.0313C1.92319 19.3408 2.29305 19.5857 2.69973 19.752C3.10641 19.9182 3.54191 20.0025 3.98125 20H16.6437C17.0831 20.0025 17.5186 19.9182 17.9253 19.752C18.332 19.5857 18.7018 19.3408 19.0136 19.0313C19.3255 18.7218 19.5731 18.3538 19.7424 17.9484C19.9116 17.543 19.9992 17.1081 20 16.6688V3.33126C19.9992 2.89191 19.9116 2.45706 19.7424 2.05163C19.5731 1.6462 19.3255 1.27818 19.0136 0.96868C18.7018 0.65918 18.332 0.414292 17.9253 0.248064C17.5186 0.0818356 17.0831 -0.00246205 16.6437 6.92943e-06Z" fill="black" stroke="white" stroke-width="0.5"/>
<path d="M16.6435 5.3314H6.64348C6.55065 5.34041 6.45696 5.32989 6.36843 5.30054C6.27991 5.27119 6.1985 5.22364 6.12944 5.16096C6.06038 5.09827 6.00519 5.02184 5.96743 4.93656C5.92966 4.85128 5.91016 4.75904 5.91016 4.66577C5.91016 4.57251 5.92966 4.48027 5.96743 4.39499C6.00519 4.30971 6.06038 4.23328 6.12944 4.17059C6.1985 4.10791 6.27991 4.06036 6.36843 4.03101C6.45696 4.00165 6.55065 3.99114 6.64348 4.00015H16.6435C16.7363 3.99114 16.83 4.00165 16.9185 4.03101C17.0071 4.06036 17.0885 4.10791 17.1575 4.17059C17.2266 4.23328 17.2818 4.30971 17.3195 4.39499C17.3573 4.48027 17.3768 4.57251 17.3768 4.66577C17.3768 4.75904 17.3573 4.85128 17.3195 4.93656C17.2818 5.02184 17.2266 5.09827 17.1575 5.16096C17.0885 5.22364 17.0071 5.27119 16.9185 5.30054C16.83 5.32989 16.7363 5.34041 16.6435 5.3314ZM16.6435 16.0064H6.64348C6.47807 15.9904 6.32457 15.9133 6.21287 15.7902C6.10118 15.6672 6.03931 15.507 6.03931 15.3408C6.03931 15.1746 6.10118 15.0144 6.21287 14.8913C6.32457 14.7683 6.47807 14.6912 6.64348 14.6751H16.6435C16.7363 14.6661 16.83 14.6767 16.9185 14.706C17.0071 14.7354 17.0885 14.7829 17.1575 14.8456C17.2266 14.9083 17.2818 14.9847 17.3195 15.07C17.3573 15.1553 17.3768 15.2475 17.3768 15.3408C17.3768 15.434 17.3573 15.5263 17.3195 15.6116C17.2818 15.6968 17.2266 15.7733 17.1575 15.836C17.0885 15.8986 17.0071 15.9462 16.9185 15.9755C16.83 16.0049 16.7363 16.0154 16.6435 16.0064ZM16.6435 9.33765H12.6497C12.4843 9.3216 12.3308 9.24454 12.2191 9.12149C12.1074 8.99844 12.0456 8.83821 12.0456 8.67202C12.0456 8.50584 12.1074 8.34561 12.2191 8.22256C12.3308 8.0995 12.4843 8.02245 12.6497 8.0064H16.6435C16.7363 7.99739 16.83 8.00791 16.9185 8.03726C17.0071 8.06661 17.0885 8.11416 17.1575 8.17684C17.2266 8.23953 17.2818 8.31596 17.3195 8.40124C17.3573 8.48652 17.3768 8.57876 17.3768 8.67202C17.3768 8.76529 17.3573 8.85753 17.3195 8.94281C17.2818 9.02809 17.2266 9.10452 17.1575 9.16721C17.0885 9.22989 17.0071 9.27744 16.9185 9.30679C16.83 9.33614 16.7363 9.34666 16.6435 9.33765ZM16.6435 12.6689H12.6497C12.4843 12.6529 12.3308 12.5758 12.2191 12.4527C12.1074 12.3297 12.0456 12.1695 12.0456 12.0033C12.0456 11.8371 12.1074 11.6769 12.2191 11.5538C12.3308 11.4308 12.4843 11.3537 12.6497 11.3376H16.6435C16.7363 11.3286 16.83 11.3392 16.9185 11.3685C17.0071 11.3979 17.0885 11.4454 17.1575 11.5081C17.2266 11.5708 17.2818 11.6472 17.3195 11.7325C17.3573 11.8178 17.3768 11.91 17.3768 12.0033C17.3768 12.0965 17.3573 12.1888 17.3195 12.2741C17.2818 12.3593 17.2266 12.4358 17.1575 12.4985C17.0885 12.5611 17.0071 12.6087 16.9185 12.638C16.83 12.6674 16.7363 12.6779 16.6435 12.6689ZM9.99973 13.3376H7.31223C6.95967 13.336 6.62201 13.1952 6.37271 12.9459C6.12341 12.6966 5.98262 12.359 5.98098 12.0064V8.6689C5.98262 8.31634 6.12341 7.97868 6.37271 7.72938C6.62201 7.48008 6.95967 7.33929 7.31223 7.33765H9.99973C10.3523 7.33929 10.6899 7.48008 10.9393 7.72938C11.1886 7.97868 11.3293 8.31634 11.331 8.6689V12.0064C11.3293 12.359 11.1886 12.6966 10.9393 12.9459C10.6899 13.1952 10.3523 13.336 9.99973 13.3376ZM7.31223 8.6689V12.0064H9.99973V8.6689H7.31223Z" fill="black" stroke="white" stroke-width="0.5"/>
</g>
<defs>
<clipPath id="clip0_1_875">
<rect width="20" height="20" fill="white"/>
</clipPath>
</defs>
</svg>
