<svg width="20" height="20" viewBox="0 0 20 20" fill="none" xmlns="http://www.w3.org/2000/svg">
<path fill-rule="evenodd" clip-rule="evenodd" d="M17.3387 6.35298L16.82 5.4529C16.3812 4.6913 15.4087 4.42856 14.6461 4.86556V4.86556C14.283 5.07942 13.8499 5.14009 13.4421 5.0342C13.0342 4.92832 12.6853 4.66456 12.4722 4.30111C12.3351 4.07009 12.2614 3.80696 12.2586 3.53833V3.53833C12.271 3.10765 12.1085 2.6903 11.8082 2.38136C11.5078 2.07241 11.0952 1.89818 10.6644 1.89836H9.61938C9.19727 1.89836 8.79256 2.06656 8.4948 2.36575C8.19704 2.66494 8.03078 3.07046 8.0328 3.49256V3.49256C8.02029 4.36407 7.3102 5.06397 6.4386 5.06388C6.16997 5.06109 5.90684 4.98742 5.67583 4.85031V4.85031C4.91318 4.41331 3.94072 4.67604 3.50191 5.43764L2.94509 6.35298C2.5068 7.11363 2.76596 8.08547 3.5248 8.52689V8.52689C4.01805 8.81167 4.32191 9.33796 4.32191 9.90751C4.32191 10.4771 4.01805 11.0034 3.5248 11.2881V11.2881C2.76693 11.7266 2.50749 12.6961 2.94509 13.4544V13.4544L3.4714 14.3621C3.677 14.7331 4.02197 15.0069 4.42996 15.1228C4.83795 15.2388 5.27533 15.1874 5.64531 14.98V14.98C6.00903 14.7677 6.44245 14.7096 6.84925 14.8185C7.25604 14.9273 7.60249 15.1942 7.8116 15.5597C7.94871 15.7907 8.02239 16.0538 8.02518 16.3225V16.3225C8.02518 17.2029 8.73893 17.9167 9.61938 17.9167H10.6644C11.5419 17.9167 12.2544 17.2076 12.2586 16.3301V16.3301C12.2565 15.9067 12.4239 15.5 12.7233 15.2006C13.0227 14.9012 13.4294 14.7339 13.8528 14.7359C14.1208 14.7431 14.3828 14.8164 14.6156 14.9495V14.9495C15.3762 15.3877 16.3481 15.1286 16.7895 14.3698V14.3698L17.3387 13.4544C17.5513 13.0895 17.6096 12.655 17.5008 12.2469C17.392 11.8389 17.125 11.4911 16.759 11.2805V11.2805C16.3929 11.0699 16.1259 10.7221 16.0171 10.3141C15.9083 9.90605 15.9667 9.47148 16.1793 9.1066C16.3175 8.86524 16.5176 8.66513 16.759 8.52689V8.52689C17.5133 8.08571 17.7718 7.11954 17.3387 6.3606V6.3606V6.35298Z" stroke="black" stroke-linecap="round" stroke-linejoin="round"/>
<ellipse cx="10.1455" cy="9.90752" rx="2.1968" ry="2.1968" stroke="black" stroke-linecap="round" stroke-linejoin="round"/>
</svg>
