<svg width="20" height="20" viewBox="0 0 20 20" fill="none" xmlns="http://www.w3.org/2000/svg">
<path d="M11 0.1H17C17.7691 0.1 18.5067 0.405534 19.0506 0.949388C19.5944 1.49324 19.9 2.23087 19.9 2.99999V17C19.9 17.7691 19.5944 18.5067 19.0506 19.0506C18.5067 19.5944 17.7691 19.8999 17 19.8999H11C10.7613 19.8999 10.5324 19.8051 10.3636 19.6363C10.1948 19.4676 10.1 19.2386 10.1 18.9999C10.1 18.7613 10.1948 18.5323 10.3636 18.3636C10.5324 18.1948 10.7613 18.1 11 18.1H17C17.2917 18.1 17.5715 17.9841 17.7778 17.7778C17.9841 17.5715 18.1 17.2917 18.1 17V2.99999C18.1 2.70825 17.9841 2.42847 17.7778 2.22218C17.5715 2.01589 17.2917 1.89999 17 1.89999H11C10.7613 1.89999 10.5324 1.80517 10.3636 1.63639C10.1948 1.46761 10.1 1.23869 10.1 0.999997C10.1 0.761303 10.1948 0.532385 10.3636 0.363603C10.5324 0.194821 10.7613 0.1 11 0.1Z" fill="#CB544B" stroke="white" stroke-width="0.2"/>
<path d="M5.63606 13.3634L5.63605 13.3634L5.6373 13.3647C5.72326 13.4477 5.79182 13.547 5.83899 13.6568C5.88616 13.7666 5.91099 13.8847 5.91203 14.0042C5.91306 14.1237 5.89029 14.2422 5.84504 14.3528C5.79979 14.4634 5.73296 14.5639 5.64846 14.6484C5.56395 14.7329 5.46347 14.7997 5.35286 14.845C5.24225 14.8902 5.12374 14.913 5.00424 14.912C4.88474 14.9109 4.76664 14.8861 4.65684 14.8389C4.54704 14.7918 4.44773 14.7232 4.3647 14.6372L4.36349 14.636L0.363507 10.636C0.194783 10.4673 0.1 10.2384 0.1 9.99973C0.1 9.76108 0.194783 9.53221 0.363507 9.36343L4.36349 5.36346L4.3635 5.36347L4.3647 5.36222C4.44773 5.27626 4.54704 5.20769 4.65684 5.16053C4.76664 5.11336 4.88474 5.08853 5.00424 5.08749C5.12374 5.08645 5.24225 5.10922 5.35286 5.15448C5.46347 5.19973 5.56395 5.26656 5.64846 5.35106C5.73296 5.43556 5.79979 5.53605 5.84504 5.64666C5.89029 5.75726 5.91306 5.87577 5.91203 5.99528C5.91099 6.11478 5.88616 6.23287 5.83899 6.34268C5.79182 6.45248 5.72326 6.55179 5.6373 6.63481L5.63729 6.6348L5.63606 6.63603L3.34307 8.92902L3.17236 9.09973H3.41378H14.9997C15.2384 9.09973 15.4674 9.19456 15.6361 9.36334C15.8049 9.53212 15.8997 9.76104 15.8997 9.99973C15.8997 10.2384 15.8049 10.4673 15.6361 10.6361C15.4674 10.8049 15.2384 10.8997 14.9997 10.8997H3.41378H3.17236L3.34307 11.0704L5.63606 13.3634Z" fill="#CB544B" stroke="white" stroke-width="0.2"/>
</svg>
