<svg width="20" height="16" viewBox="0 0 20 16" fill="none" xmlns="http://www.w3.org/2000/svg">
<path d="M19.1818 4.34916L10.8118 0.807491C10.5545 0.699291 10.2783 0.643555 9.99926 0.643555C9.72021 0.643555 9.44397 0.699291 9.18676 0.807491L0.816758 4.34916C0.590524 4.44485 0.397499 4.60508 0.261792 4.80983C0.126084 5.01457 0.0537109 5.25477 0.0537109 5.50041C0.0537109 5.74605 0.126084 5.98624 0.261792 6.19099C0.397499 6.39574 0.590524 6.55597 0.816758 6.65166L3.75009 7.89207V11.8808C3.74784 12.239 3.83885 12.5916 4.01419 12.9039C4.18953 13.2162 4.44314 13.4775 4.75009 13.6621C6.34298 14.5934 8.15493 15.0842 10.0001 15.0842C11.8453 15.0842 13.6572 14.5934 15.2501 13.6621C15.557 13.4775 15.8107 13.2162 15.986 12.9039C16.1613 12.5916 16.2523 12.239 16.2501 11.8808V7.89207L17.5001 7.36291V9.33874C17.3327 9.4112 17.1874 9.52655 17.0789 9.67313C16.9703 9.81971 16.9023 9.99233 16.8818 10.1736C16.8613 10.3548 16.889 10.5383 16.9621 10.7054C17.0352 10.8725 17.151 11.0174 17.298 11.1254C17.1673 11.2216 17.0609 11.3471 16.9875 11.4918C16.914 11.6365 16.8755 11.7964 16.8751 11.9587V13.0004C16.8751 13.1109 16.919 13.2169 16.9971 13.295C17.0753 13.3732 17.1813 13.4171 17.2918 13.4171H18.5418C18.6523 13.4171 18.7582 13.3732 18.8364 13.295C18.9145 13.2169 18.9584 13.1109 18.9584 13.0004V11.9587C18.958 11.7964 18.9195 11.6365 18.8461 11.4918C18.7726 11.3471 18.6662 11.2216 18.5355 11.1254C18.6825 11.0174 18.7983 10.8725 18.8714 10.7054C18.9445 10.5383 18.9722 10.3548 18.9517 10.1736C18.9312 9.99233 18.8632 9.81971 18.7547 9.67313C18.6461 9.52655 18.5008 9.4112 18.3334 9.33874V7.01041L19.1818 6.65166C19.408 6.55597 19.601 6.39574 19.7367 6.19099C19.8724 5.98624 19.9448 5.74605 19.9448 5.50041C19.9448 5.25477 19.8724 5.01457 19.7367 4.80983C19.601 4.60508 19.408 4.44485 19.1818 4.34916ZM18.1251 10.2921C18.1251 10.3333 18.1129 10.3736 18.09 10.4078C18.0671 10.4421 18.0346 10.4688 17.9965 10.4845C17.9584 10.5003 17.9165 10.5044 17.8761 10.4964C17.8357 10.4884 17.7986 10.4685 17.7694 10.4394C17.7403 10.4103 17.7205 10.3731 17.7124 10.3327C17.7044 10.2923 17.7085 10.2504 17.7243 10.2123C17.7401 10.1743 17.7668 10.1417 17.801 10.1189C17.8353 10.096 17.8756 10.0837 17.9168 10.0837C17.972 10.0837 18.025 10.1057 18.0641 10.1448C18.1031 10.1838 18.1251 10.2368 18.1251 10.2921ZM18.1251 12.5837H17.7084V11.9587C17.7084 11.9035 17.7304 11.8505 17.7694 11.8114C17.8085 11.7724 17.8615 11.7504 17.9168 11.7504C17.972 11.7504 18.025 11.7724 18.0641 11.8114C18.1031 11.8505 18.1251 11.9035 18.1251 11.9587V12.5837ZM15.4168 11.8808C15.4192 12.0939 15.3661 12.304 15.2627 12.4904C15.1593 12.6767 15.0092 12.833 14.8272 12.9437C13.3624 13.7994 11.6965 14.2504 10.0001 14.2504C8.30369 14.2504 6.63778 13.7994 5.17301 12.9437C4.99094 12.833 4.84085 12.6767 4.73747 12.4904C4.6341 12.304 4.58101 12.0939 4.58342 11.8808V8.24457L9.18843 10.1929C9.44561 10.3012 9.72186 10.357 10.0009 10.357C10.28 10.357 10.5562 10.3012 10.8134 10.1929L15.4168 8.24457V11.8808ZM18.8572 5.88416L10.4872 9.42582C10.333 9.49059 10.1674 9.52396 10.0001 9.52396C9.83282 9.52396 9.66723 9.49059 9.51301 9.42582L1.14301 5.88416C1.0676 5.85226 1.00325 5.79885 0.958019 5.7306C0.912783 5.66235 0.888659 5.58229 0.888659 5.50041C0.888659 5.41853 0.912783 5.33846 0.958019 5.27021C1.00325 5.20196 1.0676 5.14856 1.14301 5.11666L9.51301 1.57499C9.6672 1.51008 9.8328 1.47665 10.0001 1.47665C10.1674 1.47665 10.333 1.51008 10.4872 1.57499L18.8572 5.11666C18.9326 5.14856 18.9969 5.20196 19.0422 5.27021C19.0874 5.33846 19.1115 5.41853 19.1115 5.50041C19.1115 5.58229 19.0874 5.66235 19.0422 5.7306C18.9969 5.79885 18.9326 5.85226 18.8572 5.88416Z" fill="black"/>
</svg>
