<svg width="20" height="20" viewBox="0 0 20 20" fill="none" xmlns="http://www.w3.org/2000/svg">
<path d="M14.9062 9.08058C16.0688 8.91725 16.9638 7.92058 16.9663 6.71308C16.9663 5.52308 16.0988 4.53641 14.9613 4.34975" stroke="black" stroke-linecap="round" stroke-linejoin="round"/>
<path d="M16.4399 11.8752C17.5658 12.0436 18.3516 12.4377 18.3516 13.2502C18.3516 13.8094 17.9816 14.1727 17.3833 14.4011" stroke="black" stroke-linecap="round" stroke-linejoin="round"/>
<path fill-rule="evenodd" clip-rule="evenodd" d="M9.90529 12.2198C7.22695 12.2198 4.93945 12.6257 4.93945 14.2465C4.93945 15.8665 7.21279 16.284 9.90529 16.284C12.5836 16.284 14.8703 15.8823 14.8703 14.2607C14.8703 12.639 12.5978 12.2198 9.90529 12.2198Z" stroke="black" stroke-linecap="round" stroke-linejoin="round"/>
<path fill-rule="evenodd" clip-rule="evenodd" d="M9.90518 9.90658C11.6627 9.90658 13.0877 8.48241 13.0877 6.72408C13.0877 4.96658 11.6627 3.54158 9.90518 3.54158C8.14768 3.54158 6.72268 4.96658 6.72268 6.72408C6.71601 8.47575 8.13018 9.90075 9.88185 9.90658H9.90518Z" stroke="black" stroke-linecap="round" stroke-linejoin="round"/>
<path d="M4.90375 9.08058C3.74042 8.91725 2.84625 7.92058 2.84375 6.71308C2.84375 5.52308 3.71125 4.53641 4.84875 4.34975" stroke="black" stroke-linecap="round" stroke-linejoin="round"/>
<path d="M3.36967 11.8752C2.24384 12.0436 1.45801 12.4377 1.45801 13.2502C1.45801 13.8094 1.82801 14.1727 2.42634 14.4011" stroke="black" stroke-linecap="round" stroke-linejoin="round"/>
</svg>
