<svg width="114" height="69" viewBox="0 0 114 69" fill="none" xmlns="http://www.w3.org/2000/svg">
<path d="M32.9368 1.96776C33.1328 0.720746 34.2196 -0.132912 35.3914 0.0170743L35.492 0.0324024L48.6538 2.35831L48.7421 2.36153C52.2366 2.52179 55.033 5.53694 55.1089 9.26258L55.1105 9.41822V34.1401C55.1105 35.4404 54.1164 36.4945 52.8901 36.4945C51.6979 36.4945 50.7251 35.4982 50.672 34.2479L50.6697 34.1401V9.41822C50.6697 8.15401 49.7301 7.12251 48.551 7.06618L48.4493 7.06376C48.3678 7.06376 48.2864 7.059 48.2054 7.0495L48.0843 7.03172L34.762 4.67726C33.5524 4.46349 32.7352 3.2504 32.9368 1.96776Z" fill="#4D0790"/>
<path d="M34.5969 13.8206C34.7514 12.8922 35.5637 12.2621 36.4359 12.3742L36.5263 12.3885L45.9629 14.1543C46.8687 14.3238 47.4733 15.2398 47.3135 16.2002C47.159 17.1286 46.3467 17.7587 45.4745 17.6466L45.3841 17.6323L35.9475 15.8664C35.0417 15.697 34.4371 14.781 34.5969 13.8206Z" fill="#1AB068"/>
<path d="M34.5969 23.2386C34.7514 22.3102 35.5637 21.6801 36.4359 21.7922L36.5263 21.8065L45.9629 23.5723C46.8687 23.7418 47.4733 24.6578 47.3135 25.6182C47.159 26.5466 46.3467 27.1767 45.4745 27.0645L45.3841 27.0503L35.9475 25.2844C35.0417 25.1149 34.4371 24.199 34.5969 23.2386Z" fill="#1AB068"/>
<path d="M79.5036 1.96776C79.3076 0.720746 78.2208 -0.132912 77.049 0.0170743L76.9484 0.0324024L63.7867 2.35831L63.6983 2.36153C60.2038 2.52179 57.4075 5.53694 57.3315 9.26258L57.3299 9.41822V34.1401C57.3299 35.4404 58.324 36.4945 59.5503 36.4945C60.7425 36.4945 61.7153 35.4982 61.7684 34.2479L61.7707 34.1401V9.41822C61.7707 8.15401 62.7103 7.12251 63.8895 7.06618L63.9911 7.06376C64.0726 7.06376 64.1541 7.059 64.235 7.0495L64.3561 7.03172L77.6785 4.67726C78.8881 4.46349 79.7052 3.2504 79.5036 1.96776Z" fill="#4D0790"/>
<path d="M77.8435 13.8206C77.689 12.8922 76.8767 12.2621 76.0046 12.3742L75.9142 12.3885L66.4775 14.1543C65.5718 14.3238 64.9671 15.2398 65.127 16.2002C65.2815 17.1286 66.0938 17.7587 66.9659 17.6466L67.0563 17.6323L76.493 15.8664C77.3987 15.697 78.0034 14.781 77.8435 13.8206Z" fill="#1AB068"/>
<path d="M77.8435 23.2386C77.689 22.3102 76.8767 21.6801 76.0046 21.7922L75.9142 21.8065L66.4775 23.5723C65.5718 23.7418 64.9671 24.6578 65.127 25.6182C65.2815 26.5466 66.0938 27.1767 66.9659 27.0645L67.0563 27.0503L76.493 25.2844C77.3987 25.1149 78.0034 24.199 77.8435 23.2386Z" fill="#1AB068"/>
<path fill-rule="evenodd" clip-rule="evenodd" d="M29.1897 62.9927V43.0792H25.7538V62.9927H29.1897ZM8.78651 46.6392V62.9927H5.24568V46.6392H0V43.0793H14.0322V46.6392H8.78651ZM18.3015 62.84C17.5759 63.2386 16.7759 63.4379 15.9016 63.4379C14.293 63.4379 13.069 62.9095 12.2297 61.8526C11.3904 60.7958 10.9707 59.3217 10.9707 57.4305V48.8088H14.4066V56.9855C14.4066 57.9497 14.6252 58.7052 15.0623 59.2522C15.4995 59.7992 16.0765 60.0727 16.7934 60.0727C17.7726 60.0727 18.5507 59.6926 19.1277 58.9324C19.7048 58.1722 19.9933 57.208 19.9933 56.0399V48.8088H23.4292V62.9929H20.2031V61.213H19.9933C19.5911 61.899 19.0272 62.4413 18.3015 62.84ZM34.7258 43.0792V62.9927H31.2899V43.0792H34.7258ZM41.3737 63.4376C42.2305 63.4376 42.9868 63.2615 43.6425 62.9092C44.2982 62.5569 44.8271 62.1026 45.2293 61.5464H45.4391V62.9926H48.8226V54.2596C48.8226 52.3313 48.2893 50.8666 47.2227 49.8653C46.156 48.8641 44.5998 48.3635 42.554 48.3635C41.4 48.3635 40.3333 48.6045 39.3541 49.0866C38.375 49.5687 37.5619 50.2547 36.9149 51.1447L39.1181 52.9803C39.5028 52.4797 39.988 52.0764 40.5738 51.7704C41.1595 51.4645 41.7672 51.3115 42.3966 51.3115C43.3234 51.3115 44.0621 51.5526 44.6129 52.0347C45.1637 52.5167 45.4391 53.1471 45.4391 53.9259V54.5377C44.4599 54.1113 43.2797 53.8981 41.8983 53.8981C40.9016 53.8981 39.9924 54.0928 39.1706 54.4821C38.3487 54.8715 37.7018 55.4277 37.2297 56.1508C36.7575 56.874 36.5215 57.7083 36.5215 58.6539C36.5215 60.0816 36.9761 61.2358 37.8854 62.1165C38.7946 62.9973 39.9574 63.4376 41.3737 63.4376ZM40.535 60.0585C40.9197 60.42 41.4705 60.6008 42.1874 60.6008C43.1841 60.6008 43.9753 60.2624 44.5611 59.5856C45.1469 58.9089 45.4397 58.1162 45.4397 57.2077C44.548 56.7627 43.6125 56.5402 42.6333 56.5402C40.8498 56.5402 39.958 57.2448 39.958 58.6539C39.958 59.2287 40.1503 59.6969 40.535 60.0585ZM58.1754 63.4377C59.3819 63.4377 60.4792 63.1179 61.4671 62.4782C62.455 61.8386 63.2288 60.9486 63.7883 59.8083C64.3478 58.668 64.6276 57.3654 64.6276 55.9007C64.6276 54.4544 64.3478 53.1565 63.7883 52.007C63.2288 50.8574 62.455 49.9628 61.4671 49.3231C60.4792 48.6834 59.3819 48.3636 58.1754 48.3636C57.2662 48.3636 56.4618 48.5722 55.7624 48.9894C55.063 49.4065 54.5297 49.9211 54.1625 50.5329H53.9527L54.1625 48.5305V43.0793H50.7266V62.9928H53.9527V61.2962H54.1625C54.5122 61.9081 55.0411 62.418 55.7493 62.8259C56.4575 63.2338 57.2662 63.4377 58.1754 63.4377ZM55.7891 59.5444C56.3486 59.8967 56.9432 60.0728 57.5726 60.0728C58.2196 60.0728 58.8229 59.8967 59.3824 59.5444C59.9419 59.1921 60.3878 58.7008 60.72 58.0704C61.0523 57.44 61.2184 56.7168 61.2184 55.901C61.2184 55.0852 61.0523 54.3621 60.72 53.7317C60.3878 53.1013 59.9419 52.6146 59.3824 52.2715C58.8229 51.9285 58.2196 51.757 57.5726 51.757C56.9432 51.757 56.3486 51.9285 55.7891 52.2715C55.2296 52.6146 54.7837 53.1013 54.4515 53.7317C54.1192 54.3621 53.9531 55.0852 53.9531 55.901C53.9531 56.7168 54.1192 57.44 54.4515 58.0704C54.7837 58.7008 55.2296 59.1921 55.7891 59.5444ZM68.2137 62.9927L69.7874 58.2368H76.974L78.5477 62.9927H82.4557L75.4003 43.0792H71.3349L64.3057 62.9927H68.2137ZM70.915 54.7878H75.8197L74.1674 49.7817L73.4854 47.3898H73.2756L72.5937 49.7817L70.915 54.7878ZM87.3812 69V63.2986L87.1714 61.2961H87.3812C87.7309 61.908 88.2599 62.4178 88.968 62.8258C89.6762 63.2337 90.4849 63.4376 91.3942 63.4376C92.6007 63.4376 93.6979 63.1178 94.6858 62.4781C95.6738 61.8384 96.4475 60.9484 97.007 59.8081C97.5666 58.6678 97.8464 57.3653 97.8464 55.9005C97.8464 54.4543 97.5666 53.1564 97.007 52.0068C96.4475 50.8573 95.6738 49.9627 94.6858 49.323C93.6979 48.6833 92.6007 48.3635 91.3942 48.3635C90.4849 48.3635 89.6806 48.5721 88.9812 48.9892C88.2817 49.4064 87.7484 49.9209 87.3812 50.5328H87.1714V48.8085H83.9453V69H87.3812ZM89.0069 59.5444C89.5664 59.8967 90.1609 60.0728 90.7904 60.0728C91.4374 60.0728 92.0406 59.8967 92.6002 59.5444C93.1597 59.1921 93.6056 58.7008 93.9378 58.0704C94.27 57.44 94.4362 56.7168 94.4362 55.901C94.4362 55.0852 94.27 54.3621 93.9378 53.7317C93.6056 53.1013 93.1597 52.6146 92.6002 52.2715C92.0406 51.9285 91.4374 51.757 90.7904 51.757C90.1609 51.757 89.5664 51.9285 89.0069 52.2715C88.4473 52.6146 88.0015 53.1013 87.6692 53.7317C87.337 54.3621 87.1709 55.0852 87.1709 55.901C87.1709 56.7168 87.337 57.44 87.6692 58.0704C88.0015 58.7008 88.4473 59.1921 89.0069 59.5444ZM102.815 69V63.2986L102.605 61.2961H102.815C103.165 61.908 103.693 62.4178 104.402 62.8258C105.11 63.2337 105.919 63.4376 106.828 63.4376C108.034 63.4376 109.131 63.1178 110.119 62.4781C111.107 61.8384 111.881 60.9484 112.441 59.8081C113 58.6678 113.28 57.3653 113.28 55.9005C113.28 54.4543 113 53.1564 112.441 52.0068C111.881 50.8573 111.107 49.9627 110.119 49.323C109.131 48.6833 108.034 48.3635 106.828 48.3635C105.919 48.3635 105.114 48.5721 104.415 48.9892C103.715 49.4064 103.182 49.9209 102.815 50.5328H102.605V48.8085H99.3789V69H102.815ZM104.439 59.5444C104.999 59.8967 105.594 60.0728 106.223 60.0728C106.87 60.0728 107.473 59.8967 108.033 59.5444C108.592 59.1921 109.038 58.7008 109.37 58.0704C109.703 57.44 109.869 56.7168 109.869 55.901C109.869 55.0852 109.703 54.3621 109.37 53.7317C109.038 53.1013 108.592 52.6146 108.033 52.2715C107.473 51.9285 106.87 51.757 106.223 51.757C105.594 51.757 104.999 51.9285 104.439 52.2715C103.88 52.6146 103.434 53.1013 103.102 53.7317C102.77 54.3621 102.604 55.0852 102.604 55.901C102.604 56.7168 102.77 57.44 103.102 58.0704C103.434 58.7008 103.88 59.1921 104.439 59.5444Z" fill="#1F2029"/>
</svg>
